<?xml version="1.0" standalone="no"?>
<!DOCTYPE svg PUBLIC "-//W3C//DTD SVG 20010904//EN"
 "http://www.w3.org/TR/2001/REC-SVG-20010904/DTD/svg10.dtd">
<svg version="1.0" xmlns="http://www.w3.org/2000/svg"
 width="789.000000pt" height="789.000000pt" viewBox="0 0 789.000000 789.000000"
 preserveAspectRatio="xMidYMid meet">
<metadata>
Created by potrace 1.11, written by Peter Selinger 2001-2013
</metadata>
<g transform="translate(0.000000,789.000000) scale(0.100000,-0.100000)"
fill="#000000" stroke="none">
<path d="M2453 7564 c-99 -26 -179 -92 -221 -183 -37 -81 -41 -213 -7 -296 44
-110 136 -169 278 -179 177 -13 329 64 367 186 56 179 -31 391 -190 461 -56
24 -158 30 -227 11z m230 -71 c41 -35 46 -41 77 -89 88 -139 81 -304 -18 -382
-63 -50 -114 -65 -222 -66 -103 -1 -128 8 -187 60 -76 69 -104 200 -64 305 25
66 98 147 162 179 84 43 197 40 252 -7z"/>
<path d="M2462 7430 c-144 -65 -188 -279 -75 -366 89 -68 230 -67 309 3 128
112 24 375 -151 381 -22 1 -59 -7 -83 -18z"/>
<path d="M5187 7546 c-190 -68 -260 -336 -131 -500 55 -70 157 -119 243 -118
68 2 98 10 189 54 117 56 116 56 308 -73 320 -213 485 -337 559 -417 39 -42
138 -144 220 -226 161 -162 227 -243 326 -401 99 -157 275 -503 339 -665 51
-129 151 -435 166 -505 19 -92 20 -95 60 -87 23 4 25 8 20 41 -6 42 -64 252
-99 361 -71 220 -230 569 -358 785 -127 217 -189 300 -340 459 -47 50 -103
111 -125 135 -177 202 -464 427 -817 641 -48 29 -92 60 -99 67 -7 9 -11 50
-11 105 0 127 -32 205 -113 277 -80 71 -238 102 -337 67z m230 -62 c194 -93
219 -359 43 -458 -50 -28 -63 -31 -140 -31 -101 0 -146 19 -207 89 -62 70 -85
181 -56 275 24 80 99 137 198 150 68 10 101 4 162 -25z"/>
<path d="M5259 7440 c-92 -16 -149 -85 -149 -179 0 -127 98 -217 226 -207 157
13 231 155 150 288 -48 78 -133 115 -227 98z"/>
<path d="M1869 6902 c-47 -32 -137 -104 -198 -160 -62 -56 -142 -126 -179
-156 -106 -85 -238 -220 -376 -387 -99 -119 -266 -391 -391 -634 -182 -355
-297 -717 -330 -1040 -10 -104 -27 -189 -42 -212 -8 -11 -40 -31 -71 -44 -79
-31 -135 -72 -178 -127 -131 -172 -122 -405 21 -531 142 -124 437 -110 574 29
46 46 72 95 96 175 14 49 18 53 52 60 42 8 334 8 373 -1 45 -9 235 -12 257 -3
17 6 22 14 19 31 -3 13 -5 26 -5 30 -1 4 -79 8 -173 9 -192 1 -487 6 -504 8
-6 0 -14 18 -18 39 -3 20 -19 64 -35 98 -46 97 -121 151 -271 196 l-45 13 1
65 c2 196 84 564 188 846 169 457 420 861 721 1159 213 212 268 260 460 403
200 150 187 135 158 171 l-18 22 -86 -59z m-1373 -2662 c136 -28 243 -154 252
-298 11 -171 -85 -311 -247 -359 -74 -21 -189 -13 -255 17 -52 25 -126 90
-146 130 -71 137 -28 339 95 448 79 69 171 88 301 62z"/>
<path d="M310 4173 c-95 -24 -149 -97 -172 -232 -15 -87 -3 -131 51 -193 130
-147 378 -128 463 36 30 57 30 163 -1 227 -43 90 -130 156 -219 165 -26 3 -51
7 -57 8 -5 2 -35 -3 -65 -11z"/>
<path d="M3908 6268 c-36 -29 -144 -233 -242 -458 -37 -85 -72 -164 -77 -175
-26 -56 -75 -224 -75 -255 l1 -35 65 1 c36 0 99 6 140 11 71 10 382 10 425 0
30 -7 138 -20 158 -20 43 2 47 4 47 28 0 14 -29 94 -64 178 -35 84 -85 208
-110 277 -106 282 -147 369 -202 426 -35 37 -43 40 -66 22z"/>
<path d="M5523 5735 c-81 -26 -171 -76 -403 -225 -249 -160 -294 -193 -317
-227 -22 -32 19 -73 109 -108 164 -63 307 -152 457 -283 51 -45 79 -58 99 -46
20 13 37 60 46 124 14 107 18 131 37 240 61 349 76 513 47 531 -16 11 -23 10
-75 -6z"/>
<path d="M2310 5685 c-13 -15 -13 -46 -11 -657 1 -204 5 -309 12 -313 18 -12
53 4 99 46 136 125 182 162 279 224 40 26 121 70 180 97 133 61 191 91 191 98
0 15 -38 47 -204 171 -254 190 -364 266 -462 317 -72 37 -68 36 -84 17z"/>
<path d="M3779 5026 c-2 -2 -28 -7 -58 -10 -148 -18 -354 -77 -546 -159 -230
-97 -423 -214 -640 -388 -72 -57 -160 -123 -196 -146 -203 -132 -382 -133
-453 -3 -29 53 -40 153 -25 220 4 19 6 36 4 38 -7 7 -61 -28 -91 -60 -57 -60
-76 -114 -75 -217 2 -178 89 -295 255 -345 52 -16 151 -19 193 -7 44 13 59 0
133 -123 154 -256 338 -451 574 -611 69 -47 85 -57 169 -100 196 -101 446
-183 675 -220 47 -8 89 -20 93 -27 7 -12 7 -39 -6 -173 -2 -27 -7 -77 -10
-110 -20 -221 -49 -377 -132 -720 -30 -126 -57 -239 -59 -250 -2 -11 -8 -42
-13 -70 -13 -67 -6 -376 9 -445 46 -202 192 -349 354 -356 171 -8 327 165 372
411 4 22 9 49 11 60 2 11 5 70 7 130 5 125 -10 238 -55 430 -17 72 -32 137
-34 145 -2 8 -17 74 -33 145 -36 156 -68 320 -77 395 -3 30 -10 84 -15 120
-28 207 -30 286 -6 303 10 7 87 28 173 46 251 53 450 126 638 234 250 143 481
368 670 651 43 64 86 121 95 126 10 5 28 7 41 4 13 -3 53 -8 89 -9 198 -11
371 165 364 370 -3 90 -19 147 -60 206 -23 34 -88 79 -98 69 -2 -3 -1 -24 4
-47 4 -24 6 -64 3 -90 -11 -145 -86 -222 -214 -223 -116 0 -210 49 -437 227
-356 280 -747 473 -1127 554 -75 16 -146 23 -281 26 -99 2 -182 2 -185 -1z
m645 -333 c90 -31 171 -69 301 -142 22 -12 112 -74 200 -137 269 -193 397
-279 477 -325 91 -52 90 -44 12 -175 -170 -289 -389 -489 -716 -655 -82 -41
-316 -122 -383 -133 l-40 -6 35 18 c187 99 270 167 344 285 48 77 65 119 82
199 13 64 13 73 -1 87 -24 24 -43 4 -68 -69 -30 -88 -67 -148 -138 -225 -156
-167 -369 -274 -554 -279 -307 -9 -623 176 -742 434 -12 25 -30 66 -41 93 -21
47 -40 58 -60 35 -9 -12 -9 -22 2 -88 21 -125 146 -302 276 -388 41 -27 95
-59 118 -72 24 -12 42 -24 39 -27 -9 -9 -197 37 -278 68 -189 72 -489 277
-598 409 -142 171 -257 341 -267 395 -5 31 32 69 237 240 187 156 494 344 682
416 29 11 61 24 72 29 41 19 119 41 164 46 42 6 44 5 26 -8 -11 -8 -36 -20
-55 -28 -94 -36 -272 -185 -338 -284 -82 -121 -136 -308 -100 -344 14 -14 48
2 48 23 0 33 73 195 120 264 83 125 178 213 295 273 150 77 225 94 380 85 314
-20 560 -196 714 -511 23 -47 44 -86 46 -86 89 0 -6 246 -158 408 -69 75 -113
107 -221 165 -109 57 -110 58 -62 52 27 -4 94 -22 150 -42z"/>
<path d="M3830 4473 c-193 -34 -371 -188 -426 -371 -72 -235 2 -467 198 -614
167 -126 402 -149 596 -58 43 20 86 52 132 97 107 108 153 221 153 378 -1 331
-227 572 -538 573 -49 0 -101 -2 -115 -5z m181 -372 c116 -38 147 -209 55
-309 -33 -38 -76 -55 -135 -55 -80 -1 -145 37 -169 98 -47 120 10 242 127 272
41 11 78 9 122 -6z"/>
<path d="M4692 3957 c-33 -39 -14 -100 32 -109 37 -7 61 23 57 74 -3 40 -65
64 -89 35z"/>
<path d="M3108 3929 c-30 -11 -39 -41 -24 -76 7 -17 17 -23 41 -23 56 0 81 54
43 90 -24 22 -23 22 -60 9z"/>
<path d="M7362 4308 c-126 -19 -191 -85 -262 -264 -22 -57 -39 -85 -57 -95
-19 -10 -97 -14 -341 -14 -175 -1 -322 -2 -329 -3 -6 -1 -11 -15 -11 -32 l1
-30 66 0 c484 -2 591 -4 618 -12 25 -7 35 -17 49 -56 22 -59 73 -141 111 -177
33 -32 113 -71 166 -80 23 -5 42 -15 49 -29 22 -41 10 -205 -27 -361 -13 -55
-27 -116 -30 -135 -12 -66 -56 -212 -97 -319 -22 -58 -48 -133 -58 -166 -25
-86 -105 -220 -270 -450 -79 -110 -191 -270 -248 -355 -173 -254 -220 -310
-353 -416 -41 -32 -108 -88 -149 -124 -172 -151 -286 -228 -555 -375 -27 -15
-94 -52 -148 -82 -135 -77 -131 -79 -218 104 -85 177 -89 187 -144 333 -23 63
-64 163 -90 222 -26 60 -45 115 -41 123 3 8 69 46 147 85 78 40 189 102 246
138 155 99 137 94 200 65 54 -25 146 -34 213 -20 81 16 150 70 191 147 33 64
33 166 -1 235 -55 113 -171 184 -277 171 -106 -14 -164 -46 -213 -117 -41 -61
-52 -167 -25 -252 20 -65 18 -71 -50 -124 -84 -66 -156 -108 -321 -188 -88
-42 -166 -83 -176 -92 -10 -9 -15 -24 -12 -41 4 -24 124 -314 189 -457 12 -27
28 -68 35 -90 11 -36 34 -88 132 -306 35 -78 55 -91 114 -74 57 17 227 104
373 192 373 225 685 493 956 824 54 65 164 222 271 384 133 203 256 436 333
633 60 154 133 403 151 512 6 41 13 86 16 100 5 32 16 142 19 200 2 25 3 53 4
62 1 12 20 23 65 37 142 44 227 106 273 199 23 47 28 71 29 137 2 122 -38 249
-99 316 -41 46 -109 89 -161 104 -63 18 -184 24 -254 13z m223 -59 c87 -28
148 -89 188 -190 75 -189 45 -327 -90 -406 -153 -90 -349 -74 -460 37 -76 75
-98 128 -97 230 0 96 25 167 83 232 84 95 247 137 376 97z m-1764 -1978 c108
-40 179 -201 135 -304 -30 -73 -143 -137 -238 -137 -117 1 -217 105 -218 225
0 64 37 144 81 178 64 48 171 65 240 38z"/>
<path d="M7397 4175 c-110 -38 -185 -141 -187 -253 -1 -126 68 -221 172 -237
158 -23 274 8 318 87 18 32 23 56 23 122 0 44 -5 99 -11 122 -17 59 -65 120
-114 145 -52 27 -147 33 -201 14z"/>
<path d="M5673 2231 c-85 -21 -127 -87 -121 -188 4 -67 21 -100 72 -137 39
-30 135 -28 199 3 66 32 92 72 92 142 0 95 -69 171 -165 182 -25 3 -60 2 -77
-2z"/>
<path d="M408 3233 c-33 -5 -32 2 -12 -130 18 -128 81 -338 135 -453 45 -95
64 -120 91 -120 19 0 99 32 218 88 119 56 164 74 245 97 44 12 115 39 158 59
82 38 106 42 137 26 22 -12 104 -124 150 -205 58 -104 181 -278 226 -320 5 -5
35 -39 65 -75 30 -35 73 -85 96 -110 24 -25 43 -52 43 -61 0 -23 -44 -86 -99
-140 -25 -25 -70 -72 -99 -104 -52 -58 -52 -59 -34 -78 19 -18 21 -17 98 60
193 190 202 197 245 196 42 -1 67 -14 201 -109 40 -28 139 -88 219 -133 129
-71 188 -100 331 -158 58 -24 72 -45 64 -95 -7 -43 -173 -462 -200 -502 -14
-21 -22 -23 -115 -24 -159 -1 -258 -43 -314 -134 -45 -72 -61 -243 -31 -331
22 -64 80 -120 148 -141 67 -21 226 -29 286 -14 215 54 284 333 130 526 -26
32 -40 60 -40 79 0 24 129 357 189 488 16 35 28 73 36 110 5 22 -15 51 -46 67
-19 10 -90 43 -159 75 -159 74 -392 203 -545 301 -106 69 -259 187 -277 214
-9 13 -55 67 -103 119 -51 55 -131 160 -193 254 -112 168 -197 288 -226 318
-25 25 -52 21 -147 -20 -46 -20 -129 -49 -184 -64 -55 -15 -176 -61 -269 -102
-123 -54 -175 -73 -190 -67 -39 14 -140 307 -162 470 -3 25 -8 54 -10 65 -2
11 -7 35 -10 53 -3 17 -9 31 -13 31 -3 -1 -18 -4 -33 -6z m2268 -2361 c89 -46
137 -136 138 -257 0 -97 -15 -145 -61 -196 -47 -52 -107 -72 -218 -71 -179 1
-270 86 -282 262 -9 127 30 207 125 255 80 40 227 44 298 7z"/>
<path d="M2467 825 c-61 -16 -116 -59 -144 -115 -28 -55 -29 -94 -3 -163 47
-124 173 -173 321 -123 47 16 70 31 93 59 28 35 31 46 33 114 1 41 -3 87 -10
102 -45 107 -164 159 -290 126z"/>
<path d="M1388 1615 c-2 -2 -19 -5 -38 -8 -42 -5 -109 -37 -131 -63 -38 -44
-53 -88 -52 -161 2 -124 55 -200 160 -227 170 -43 306 54 305 218 0 100 -49
182 -127 217 -38 17 -109 32 -117 24z m69 -61 c121 -41 171 -197 95 -293 -80
-102 -244 -96 -318 11 -25 35 -29 51 -29 107 1 145 112 222 252 175z"/>
<path d="M1315 1500 c-83 -54 -86 -182 -6 -239 39 -28 126 -31 166 -5 67 44
91 143 49 202 -45 60 -149 81 -209 42z"/>
</g>
</svg>
